HIERARCHY
ROOT Hips
{
 OFFSET 0.000000 0.000000 0.000000
 CHANNELS 6 Xposition Yposition Zposition Yrotation Xrotation Zrotation
 JOINT Chest
 {
  OFFSET 0.000000 9.585900 0.002600
  CHANNELS 3 Yrotation Xrotation Zrotation
  JOINT Chest2
  {
   OFFSET 0.000000 9.601200 -0.005300
   CHANNELS 3 Yrotation Xrotation Zrotation
   JOINT Chest3
   {
    OFFSET 0.000000 9.561800 0.000000
    CHANNELS 3 Yrotation Xrotation Zrotation
    JOINT Chest4
    {
     OFFSET 0.000000 9.552100 0.000000
     CHANNELS 3 Yrotation Xrotation Zrotation
     JOINT Neck
     {
      OFFSET 0.000000 14.453000 0.000000
      CHANNELS 3 Yrotation Xrotation Zrotation
      JOINT Head
      {
       OFFSET 0.000000 8.936500 -0.011300
       CHANNELS 3 Yrotation Xrotation Zrotation
       End Site
       {
        OFFSET 0.000000 17.073600 -0.006000
       }
      }
     }
     JOINT RightCollar
     {
      OFFSET -2.921100 9.558500 0.000000
      CHANNELS 3 Yrotation Xrotation Zrotation
      JOINT RightShoulder
      {
       OFFSET -13.519700 0.000000 0.000000
       CHANNELS 3 Yrotation Xrotation Zrotation
       JOINT RightElbow
       {
        OFFSET 0.000000 -29.696600 0.000000
        CHANNELS 3 Yrotation Xrotation Zrotation
        JOINT RightWrist
        {
         OFFSET 0.000000 -24.004700 0.000000
         CHANNELS 3 Yrotation Xrotation Zrotation
         End Site
         {
          OFFSET 0.000000 -17.728500 0.000000
         }
        }
       }
      }
     }
     JOINT LeftCollar
     {
      OFFSET 2.921100 9.558500 0.000000
      CHANNELS 3 Yrotation Xrotation Zrotation
      JOINT LeftShoulder
      {
       OFFSET 13.519700 0.000000 0.000000
       CHANNELS 3 Yrotation Xrotation Zrotation
       JOINT LeftElbow
       {
        OFFSET 0.000000 -29.696600 0.000000
        CHANNELS 3 Yrotation Xrotation Zrotation
        JOINT LeftWrist
        {
         OFFSET 0.000000 -24.004700 0.000000
         CHANNELS 3 Yrotation Xrotation Zrotation
         End Site
         {
          OFFSET 0.000000 -17.728500 0.000000
         }
        }
       }
      }
     }
    }
   }
  }
 }
 JOINT RightHip
 {
  OFFSET -7.771700 -0.012900 -0.001300
  CHANNELS 3 Yrotation Xrotation Zrotation
  JOINT RightKnee
  {
   OFFSET 0.000000 -40.869800 0.001200
   CHANNELS 3 Yrotation Xrotation Zrotation
   JOINT RightAnkle
   {
    OFFSET 0.000000 -39.717900 0.002100
    CHANNELS 3 Yrotation Xrotation Zrotation
    JOINT RightToe
    {
     OFFSET 0.000000 -4.965400 11.033500
     CHANNELS 3 Yrotation Xrotation Zrotation
     End Site
     {
      OFFSET 0.000000 -1.423100 5.872300
     }
    }
   }
  }
 }
 JOINT LeftHip
 {
  OFFSET 7.771700 -0.012900 -0.001300
  CHANNELS 3 Yrotation Xrotation Zrotation
  JOINT LeftKnee
  {
   OFFSET 0.000000 -40.869800 0.001200
   CHANNELS 3 Yrotation Xrotation Zrotation
   JOINT LeftAnkle
   {
    OFFSET 0.000000 -39.717900 0.002100
    CHANNELS 3 Yrotation Xrotation Zrotation
    JOINT LeftToe
    {
     OFFSET 0.000000 -4.965400 11.033500
     CHANNELS 3 Yrotation Xrotation Zrotation
     End Site
     {
      OFFSET 0.000000 -1.423100 5.872300
     }
    }
   }
  }
 }
}
MOTION
Frames: 8
Frame Time: 0.008333
-104.153221 58.538141 95.298568 173.120083 -31.764840 -2.703191 1.405704 20.733946 3.030672 0.130540 2.730525 0.348285 0.224881 4.430524 0.561197 1.190387 17.837097 2.470725 3.838581 24.283095 -1.297778 7.210675 9.584625 -3.191499 2.354010 -2.557000 -1.925132 16.243004 -18.288657 -21.479795 133.001441 -75.863466 -92.170318 23.687524 -18.797432 -53.796423 -4.883639 -3.878774 -4.189423 -5.318321 -9.397854 -2.982117 44.224654 -49.052342 -77.868891 3.652022 -3.963666 -1.898243 9.700812 -42.386743 0.412371 -6.255964 67.332199 -6.881196 5.204020 19.541327 6.362203 -0.171125 -13.857104 2.493415 -4.715029 -40.831993 6.497351 24.691173 66.108636 22.740465 -16.302073 5.746613 -2.292758 -0.311785 -0.279858 -0.151272
-104.159704 58.529325 95.323308 173.068805 -31.824165 -2.708272 1.462487 20.707646 3.035484 0.135844 2.765471 0.359144 0.222870 4.449525 0.569987 1.193794 17.792564 2.450913 3.828512 24.292827 -1.228040 7.181361 9.595008 -3.092189 2.346580 -2.494723 -1.896668 16.324309 -18.313699 -21.636695 133.259496 -75.937617 -92.457823 23.728549 -18.858018 -53.851644 -4.835129 -3.851664 -4.178714 -5.375851 -9.347225 -2.983413 44.271389 -48.970746 -77.979724 3.674728 -3.987438 -1.954534 9.654870 -42.369517 0.494670 -6.318680 67.291982 -6.969514 5.283512 19.741859 6.358022 -0.182881 -13.990065 2.509060 -4.674312 -40.773848 6.507029 24.690743 66.090839 22.756379 -16.294657 5.720852 -2.289818 -0.316377 -0.243606 -0.153024
-104.169946 58.517420 95.352198 173.025951 -31.860928 -2.706806 1.495235 20.701708 3.043780 0.145843 2.759811 0.356396 0.208256 4.388103 0.558225 1.196227 17.765306 2.449288 3.827918 24.368553 -1.166762 7.147879 9.606086 -3.017966 2.363743 -2.396719 -1.892236 16.384581 -18.312757 -21.754005 133.510834 -76.004387 -92.728673 23.744083 -18.909773 -53.899340 -4.807025 -3.727240 -4.169326 -5.391977 -9.346062 -2.976288 44.297835 -48.888316 -78.073839 3.700196 -4.008894 -1.999704 9.583754 -42.378124 0.574028 -6.430482 67.252975 -7.124015 5.384632 19.947755 6.355407 -0.196623 -14.125591 2.524719 -4.629009 -40.737588 6.499497 24.678303 66.058151 22.765299 -16.297554 5.703084 -2.292869 -0.314339 -0.203351 -0.153610
-104.186943 58.502331 95.384195 173.003661 -31.874589 -2.687278 1.493789 20.676885 3.023359 0.146771 2.752176 0.349837 0.211232 4.395751 0.565325 1.199771 17.772011 2.450731 3.800671 24.346942 -1.137468 7.109469 9.615657 -2.965721 2.402328 -2.438942 -1.905938 16.414879 -18.265929 -21.846131 133.974561 -75.968265 -93.105915 23.669884 -18.859106 -54.003310 -4.784087 -3.708085 -4.172440 -5.408066 -9.353791 -2.955763 44.309862 -48.803441 -78.151723 3.686643 -4.025818 -1.986381 9.504612 -42.408437 0.615922 -6.548768 67.219337 -7.295820 5.489366 20.152140 6.350815 -0.197750 -14.260506 2.539136 -4.565092 -40.725610 6.435248 24.649783 65.999689 22.771462 -16.294992 5.721307 -2.300876 -0.312800 -0.177407 -0.153344
-104.196250 58.490557 95.411209 172.963771 -31.934257 -2.709472 1.527528 20.701142 3.062877 0.148567 2.741765 0.346640 0.222097 4.427152 0.568433 1.192142 17.753853 2.450253 3.770140 24.331855 -1.111742 7.066024 9.620831 -2.933320 2.436894 -2.443898 -1.910164 16.422835 -18.240304 -21.891064 134.156131 -75.971823 -93.256330 23.649167 -18.885814 -54.046797 -4.733935 -3.723252 -4.176446 -5.462201 -9.356304 -2.892830 44.345225 -48.673468 -78.233867 3.723211 -4.046550 -2.044921 9.454298 -42.384688 0.706832 -6.731128 67.165280 -7.494137 5.584851 20.329292 6.355337 -0.197269 -14.367193 2.549695 -4.557623 -40.668018 6.476615 24.637645 65.984049 22.762715 -16.301454 5.701899 -2.307395 -0.298647 -0.143395 -0.146427
-104.207726 58.478270 95.436920 172.914678 -32.000762 -2.721363 1.566003 20.737988 3.100596 0.147300 2.733198 0.341524 0.220550 4.422833 0.569321 1.186754 17.745964 2.455097 3.743809 24.344282 -1.096750 7.017846 9.620704 -2.919325 2.491394 -2.429831 -1.921734 16.426026 -18.212473 -21.932784 134.272095 -75.993403 -93.365983 23.635263 -18.889199 -54.071080 -4.693636 -3.699429 -4.189554 -5.482011 -9.344506 -2.881381 44.349068 -48.613371 -78.286933 3.752036 -4.063289 -2.096825 9.419906 -42.353333 0.785642 -6.866694 67.116465 -7.646997 5.665084 20.490145 6.363499 -0.238198 -14.459310 2.568333 -4.525538 -40.604255 6.497436 24.637808 65.971260 22.775485 -16.302585 5.669418 -2.309333 -0.293500 -0.101331 -0.143632
-104.232216 58.461156 95.465597 172.870027 -32.030022 -2.667794 1.572731 20.744414 3.067520 0.129640 2.710292 0.346038 0.234796 4.437337 0.565147 1.141999 17.718397 2.478248 3.743555 24.384638 -1.129332 6.955818 9.609454 -2.910252 2.578177 -2.392578 -1.970454 16.469007 -18.199417 -22.011093 134.441623 -76.046094 -93.528959 23.627535 -18.861361 -54.115426 -4.617419 -3.667847 -4.238244 -5.500286 -9.332059 -2.873823 44.352536 -48.569164 -78.321044 3.751246 -4.074474 -2.099512 9.411025 -42.383170 0.746498 -6.840478 67.119612 -7.641732 5.751864 20.682524 6.369868 -0.280332 -14.594024 2.574763 -4.452218 -40.583080 6.432604 24.645474 65.946599 22.793260 -16.362489 5.644041 -2.345807 -0.234467 -0.058127 -0.116833
-104.251681 58.443052 95.494567 172.840431 -32.057540 -2.657988 1.591201 20.760533 3.074178 0.132637 2.715262 0.344376 0.214166 4.419596 0.572738 1.140515 17.723710 2.485667 3.741966 24.398049 -1.150505 6.872583 9.581811 -2.892662 2.611208 -2.380773 -1.996075 16.534966 -18.198020 -22.074484 134.661663 -76.105317 -93.706367 23.644348 -18.812672 -54.188131 -4.582669 -3.670461 -4.258938 -5.558281 -9.383211 -2.808928 44.402805 -48.467305 -78.329652 3.764945 -4.077217 -2.121314 9.431331 -42.403757 0.722682 -6.864334 67.105784 -7.647201 5.808918 20.839571 6.370956 -0.298282 -14.693069 2.586557 -4.431228 -40.560466 6.432080 24.627831 65.921087 22.769483 -16.383037 5.644740 -2.357438 -0.211453 -0.031978 -0.104344
